<?xml version="1.0" encoding="UTF-8" standalone="no"?>
<!DOCTYPE svg PUBLIC "-//W3C//DTD SVG 1.1//EN" "http://www.w3.org/Graphics/SVG/1.1/DTD/svg11.dtd">
<svg width="100%" height="100%" viewBox="0 0 2618 1217" version="1.1" xmlns="http://www.w3.org/2000/svg" xmlns:xlink="http://www.w3.org/1999/xlink" xml:space="preserve" xmlns:serif="http://www.serif.com/" style="fill-rule:evenodd;clip-rule:evenodd;stroke-linejoin:round;stroke-miterlimit:2;">
    <g id="Artboard1" transform="matrix(1.86956,0,0,0.869045,0,0)">
        <rect x="0" y="0" width="1400" height="1400" style="fill:none;"/>
        <g transform="matrix(0.584384,0,0,1.27258,-46.2195,-189.12)">
            <path d="M562.801,300.026C569.252,295.553 620.158,261.21 656.912,258.402C701.672,254.982 615.395,310.989 599.308,324.449C583.221,337.91 687.592,282.902 690.179,300.657C692.766,318.413 686.258,331.381 645.307,345.376C604.355,359.37 716.716,321.776 705.501,340.195C694.287,358.614 679.309,364.88 679.309,364.88L695.564,368.836C695.564,368.836 696.053,384.923 684.744,385.536C673.435,386.15 695.706,396.893 695.706,396.893L682.486,404.824L691.637,413.786L686.202,421.135C686.202,421.135 697.159,418.557 692.959,433.393C688.76,448.229 680.657,437.358 680.657,449.266C680.657,461.174 690.556,461.091 692.378,475.059C694.201,489.027 695.893,493.743 707.912,499.99C719.931,506.238 703.46,511.743 709.033,523.852C714.607,535.961 719.037,534.833 716.635,541.422C714.234,548.011 709.633,544.406 710.717,552.405C711.802,560.405 718.776,554.451 716.635,566.302C714.494,578.152 706.997,572.141 706.997,580.259C706.997,588.377 714.113,599.919 702.039,611.534C689.966,623.15 677.383,611.388 668.466,616.966C659.548,622.545 666.707,639.032 651.071,640.591C635.434,642.15 602.31,623.756 597.583,630.375C592.855,636.994 642.408,675.607 678.43,685.616C714.453,695.626 786.947,697.647 856.331,708.369C925.715,719.091 1167.45,743.576 1179.05,747.979C1190.65,752.381 1178.41,758.883 1200.06,765.704C1221.71,772.526 1334.95,766.059 1331.49,773.292C1328.04,780.525 1321.09,801.903 1298.67,804.479C1276.25,807.056 1213.3,794.66 1192.64,802.592C1171.99,810.524 1196.61,817.333 1167.31,821.471C1138.01,825.609 1106.91,817.545 1049.72,814.415C992.525,811.284 776.949,782.461 729.309,764.513C708.143,756.539 643.92,778.239 643.92,778.239C643.92,778.239 665.616,793.092 663.452,813.278C661.288,833.464 666.605,841.889 651.794,855.786C636.983,869.682 635.785,856.575 628.275,873.949C620.764,891.324 627.561,893.613 618.383,901.155C609.205,908.696 605.322,898.888 600.139,905.385C594.957,911.881 607.619,910.688 595.917,924.102C584.215,937.516 566.772,940.153 560.81,957.021C554.849,973.89 564.904,970.505 559.064,986.084C553.052,1002.12 544.238,1000.6 544.238,1000.6C544.238,1000.6 550.86,1012.12 546.669,1021.77C542.478,1031.42 547.53,1039.23 538.93,1043.59C530.329,1047.95 517.45,1027.78 517.886,1035.66C518.321,1043.53 527.348,1068.6 522.819,1082.3C518.291,1096.01 495.529,1071.62 493.516,1076.46C491.503,1081.3 517.35,1127.87 501.615,1144.94C489.033,1158.6 460.964,1117.4 450.219,1100.26C447.655,1095.79 445.921,1093.11 445.921,1093.14C445.921,1093.17 447.526,1095.96 450.219,1100.26C459.894,1117.13 481.391,1159.5 466.46,1178.15C447.566,1201.75 406.376,1111.96 394.208,1103.74C382.039,1095.52 450.361,1200.3 413.593,1202.56C399.394,1203.43 378.124,1167.67 371.189,1155.83C364.254,1143.98 375.358,1210.68 353.65,1198.19C331.941,1185.7 318.222,1132.63 317.64,1139.47C317.058,1146.3 315.883,1179.9 304.569,1177.97C293.255,1176.04 258.489,1081.16 261.102,1091.34C263.716,1101.52 259.663,1129.66 250.602,1125.33C241.541,1121 219.063,1086.27 217.805,1047.02C216.546,1007.77 207.955,974.704 207.915,957.258C207.876,939.812 227.014,887.973 229.698,870.993C232.381,854.014 224.082,819.171 233.914,793.93C243.746,768.69 299.655,724.788 299.655,724.788L207.952,699.404L178.111,699.639C178.111,699.639 118.034,709.675 108.341,720.347C98.648,731.019 113.834,689.222 160.271,660.967C164.791,658.217 165.414,641.9 187.756,625.094C236.46,588.46 341.122,599.682 341.122,599.682C341.122,599.682 340.55,568.618 329.477,541.417C320.695,519.846 300.152,503.98 304.541,484.775C314.463,441.354 335.641,422.804 335.641,422.804C335.641,422.804 339.45,394.735 354.271,367.568C369.092,340.4 370.195,358.495 379.906,340.201C406.475,290.157 461.789,216.377 473.884,211.555C485.452,206.943 464.141,274.572 428.52,319.356C424.823,323.764 422.957,326.026 423.57,325.319C425.248,323.385 426.897,321.396 428.52,319.356C451.705,291.708 546.901,179.616 555.179,184.465C564.132,189.708 565.971,221.392 499.176,293.564C486.032,306.565 479.032,314.478 483.625,309.822C489.182,304.188 494.359,298.77 499.176,293.564C525.656,267.37 577.071,220.523 608.848,214.211C656.397,204.766 584.626,284.12 565.516,298.064C564.248,298.99 563.353,299.633 562.801,300.026L562.794,300.031C561.917,300.639 561.869,300.69 562.801,300.026ZM228.683,913.244C228.683,913.244 249.427,941.841 280.482,931.256C311.536,920.671 345.804,882.467 358.262,882.449C370.72,882.432 374.155,888.205 379.402,883.138C384.649,878.07 379.718,874.536 390.73,872.154C401.741,869.773 399.962,879.177 412.855,878.003C425.747,876.83 424.141,866.533 443.995,868.981C463.85,871.429 486.49,886.612 505.318,904.497C524.146,922.381 511.214,936.246 514.13,949.262C517.046,962.278 518.128,996.741 512.308,1007.28C506.487,1017.81 501.354,996.304 496.68,1005.59C492.006,1014.87 501.361,1043.78 495.402,1052.59C489.444,1061.4 482.567,1048.27 479.303,1055.06C476.039,1061.85 483.067,1096.56 474.664,1102.59C466.262,1108.62 438.23,1075.84 437.997,1080.4C437.763,1084.96 454.46,1140.61 447.171,1148.53C439.882,1156.44 429.888,1140.38 421.242,1129.32C412.595,1118.27 388.561,1089.95 387.551,1094.43C386.54,1098.9 407.213,1148.99 405.635,1161.42C404.057,1173.86 404.604,1181.68 399.417,1181.42C394.231,1181.15 375.489,1147.19 370.928,1143.29C366.367,1139.38 349.351,1113.12 349.8,1118.14C350.25,1123.15 361.963,1155.05 359.345,1171.34C356.727,1187.63 355.676,1189.79 339.765,1168.22C323.853,1146.66 304.353,1091.11 302.146,1100.1C299.939,1109.09 309.46,1132.45 309.258,1139.8C309.057,1147.15 306.304,1159.89 302.091,1160.07C297.878,1160.25 280.781,1128.3 276.638,1115.87C272.494,1103.43 260.791,1059.57 256.444,1052.68C252.097,1045.8 246.643,1057.12 246.643,1065.26C246.643,1073.4 252.924,1093.17 250.887,1100.42C248.851,1107.68 242.475,1108.84 239.365,1104.53C236.255,1100.22 224.709,1085.76 223.191,1054.8C221.672,1023.84 213.197,985.589 215.262,960.084C217.326,934.579 228.683,913.244 228.683,913.244ZM365.675,610.536C365.675,610.536 422.917,624.947 440.846,624.172C458.775,623.398 464.97,617.6 487.716,617.216C510.462,616.832 568.763,621.296 593.964,633.904C602.22,638.035 617.574,656.798 617.574,656.798C617.574,656.798 593.054,722.094 569.998,721.717C546.943,721.34 533.123,701.628 518.834,710.806C504.544,719.985 494.6,734.155 500.756,745.622C506.913,757.09 558.039,770.062 536.539,765.257C515.039,760.452 546.865,772.477 546.865,772.477C546.865,772.477 511.682,767.558 504.598,772.961C497.514,778.363 495.817,781.947 496.041,789.016C496.265,796.085 404.338,774.301 399.244,764.143C394.149,753.984 414.076,733.857 422.477,709.83C430.877,685.803 406.535,628.506 388.117,623.138C375.682,619.515 365.675,610.536 365.675,610.536ZM199.676,637.108C199.676,637.108 206.977,637.433 210.116,640.753C216.58,647.588 210.627,654.075 210.627,654.075C210.627,654.075 223.844,646.365 214.253,637.693C206.833,630.983 199.676,637.108 199.676,637.108ZM403.912,347.784C410.841,339.738 434.375,304.572 444.453,286.164C455.529,265.933 469.852,232.093 456.989,237.301C444.126,242.509 389.618,334.775 379.304,348.172C374.45,354.477 365.199,361.939 354.925,375.994C344.65,390.049 343.129,399.961 343.197,410.913C343.229,416.084 352.271,403.639 358.593,400.257C364.915,396.875 368.992,398.56 376.401,397.103C383.811,395.645 400.306,399.9 409.465,402.036C418.624,404.172 432.99,414.435 439.966,421.495C446.943,428.554 475.21,444.049 487.41,447.174C499.611,450.298 507.641,446.977 514.811,448.153C521.981,449.33 524.216,455.698 533.758,458.612C543.3,461.526 584.566,465.501 598.428,462.427C612.29,459.352 619.866,449.605 629.552,442.85C639.238,436.095 640.829,428.771 642.823,424.634C644.818,420.497 655.495,415.861 655.495,411.048C655.495,406.235 642.176,409.77 641.842,403.602C641.507,397.435 649.515,400.073 654.984,389.749C660.453,379.426 641.077,383.535 647.889,377.571C654.701,371.606 665.715,353.675 656.711,349.706C647.708,345.737 617.663,359.044 622.898,354.492C628.133,349.941 645.055,335.526 649.721,332.14C654.386,328.753 663.065,314.435 653.426,313.616C643.787,312.797 619.412,324.003 611.113,325.651C602.815,327.298 576.579,340.516 576.87,334.98C577.161,329.443 624.612,296.262 631.593,290.03C638.574,283.798 645.783,269.808 628.598,272.218C611.414,274.628 581.561,302.043 565.132,305.793C548.703,309.543 500.822,344.283 509.569,329.102C518.317,313.922 578.417,275.661 592.344,257.658C606.271,239.656 594.797,231.056 586.242,233.43C577.687,235.803 532.771,278.285 522.419,285.364C512.066,292.443 475.915,324.22 469.729,322.663C463.542,321.106 469.567,314.939 484.247,300.461C498.927,285.983 515.445,268.272 524.403,253.062C533.361,237.853 552.713,207.221 536.589,209.735C520.465,212.25 493.432,255.424 478.927,270.35C468.817,280.755 431.609,322.739 412.963,342.014C407.954,347.192 405.62,346.004 403.912,347.784C403.696,348.035 403.494,348.256 403.307,348.445C402.59,349.171 402.857,348.883 403.912,347.784Z"/>
        </g>
        <g transform="matrix(1.68795,0,0,3.63126,-637.539,-2384.83)">
            <g transform="matrix(125,0,0,125,592.584,1010.08)">
                <path d="M0.45,-0L0.688,-0L0.688,-0.002C0.675,-0.073 0.673,-0.123 0.694,-0.224L0.755,-0.537C0.773,-0.626 0.797,-0.678 0.853,-0.73L0.853,-0.732L0.635,-0.732L0.387,-0.277L0.317,-0.732L0.108,-0.732L0.108,-0.73C0.144,-0.685 0.153,-0.63 0.136,-0.538L0.136,-0.539L0.075,-0.225C0.054,-0.12 0.037,-0.077 -0.024,-0.002L-0.024,-0L0.144,-0L0.144,-0.002C0.107,-0.071 0.097,-0.123 0.116,-0.223L0.183,-0.576L0.268,-0.022L0.294,-0.022L0.595,-0.575L0.527,-0.225C0.506,-0.12 0.487,-0.077 0.45,-0.002L0.45,-0Z" style="fill-rule:nonzero;"/>
            </g>
            <g transform="matrix(125,0,0,125,689.334,1010.08)">
                <path d="M0.128,-0L0.128,-0.002C0.09,-0.043 0.094,-0.122 0.144,-0.228L0.162,-0.267L0.336,-0.267L0.341,-0.218C0.351,-0.118 0.34,-0.056 0.299,-0.002L0.299,-0L0.558,-0L0.558,-0.002C0.522,-0.058 0.517,-0.114 0.508,-0.193L0.45,-0.732L0.34,-0.732L0.088,-0.194C0.051,-0.11 0.015,-0.044 -0.036,-0.002L-0.036,-0L0.128,-0ZM0.178,-0.301L0.303,-0.568L0.332,-0.301L0.178,-0.301Z" style="fill-rule:nonzero;"/>
            </g>
            <g transform="matrix(125,0,0,125,760.584,1010.08)">
                <path d="M0.669,-0.339L0.669,-0.341L0.439,-0.341L0.439,-0.339C0.456,-0.309 0.467,-0.28 0.467,-0.226C0.467,-0.107 0.412,-0.018 0.323,-0.018C0.25,-0.018 0.212,-0.076 0.212,-0.202C0.212,-0.42 0.312,-0.713 0.461,-0.713C0.526,-0.713 0.57,-0.662 0.649,-0.521L0.665,-0.524L0.661,-0.724C0.63,-0.733 0.557,-0.747 0.485,-0.747C0.227,-0.747 0.042,-0.534 0.042,-0.289C0.042,-0.113 0.137,0.015 0.321,0.015C0.455,0.015 0.544,-0.054 0.59,-0.082L0.597,-0.142C0.607,-0.221 0.629,-0.272 0.669,-0.339Z" style="fill-rule:nonzero;"/>
            </g>
            <g transform="matrix(125,0,0,125,844.084,1010.08)">
                <path d="M0.231,-0.002C0.218,-0.072 0.215,-0.122 0.236,-0.224L0.249,-0.291L0.296,-0.291C0.503,-0.291 0.608,-0.426 0.608,-0.562C0.608,-0.664 0.544,-0.732 0.396,-0.732L0.131,-0.732L0.131,-0.73C0.145,-0.656 0.145,-0.613 0.124,-0.507L0.07,-0.225C0.049,-0.12 0.03,-0.077 -0.007,-0.002L-0.007,-0L0.231,-0L0.231,-0.002ZM0.362,-0.696C0.416,-0.696 0.442,-0.664 0.442,-0.59C0.442,-0.476 0.397,-0.327 0.293,-0.327L0.256,-0.327L0.329,-0.695C0.339,-0.696 0.352,-0.696 0.362,-0.696Z" style="fill-rule:nonzero;"/>
            </g>
            <g transform="matrix(125,0,0,125,914.334,1010.08)">
                <path d="M-0.007,-0L0.231,-0L0.231,-0.002C0.217,-0.073 0.215,-0.123 0.236,-0.224L0.292,-0.508C0.314,-0.609 0.327,-0.655 0.377,-0.73L0.377,-0.732L0.131,-0.732L0.131,-0.73C0.145,-0.655 0.145,-0.612 0.124,-0.507L0.07,-0.225C0.049,-0.12 0.03,-0.077 -0.007,-0.002L-0.007,-0Z" style="fill-rule:nonzero;"/>
            </g>
            <g transform="matrix(125,0,0,125,953.209,1010.08)">
                <path d="M0.436,-0L0.511,-0.224L0.495,-0.23C0.445,-0.162 0.351,-0.043 0.288,-0.037L0.197,-0.029L0.292,-0.508C0.312,-0.609 0.328,-0.655 0.377,-0.73L0.377,-0.732L0.132,-0.732L0.132,-0.73C0.145,-0.655 0.145,-0.612 0.125,-0.507L0.07,-0.225C0.049,-0.118 0.031,-0.077 -0.007,-0.002L-0.007,-0L0.436,-0Z" style="fill-rule:nonzero;"/>
            </g>
            <g transform="matrix(125,0,0,125,1020.96,1010.08)">
                <path d="M-0.007,-0L0.479,-0L0.551,-0.228L0.536,-0.233C0.465,-0.142 0.391,-0.04 0.333,-0.037L0.197,-0.029L0.263,-0.356L0.304,-0.356C0.352,-0.356 0.378,-0.295 0.4,-0.251L0.416,-0.251L0.463,-0.487L0.446,-0.487C0.412,-0.45 0.358,-0.39 0.311,-0.39L0.269,-0.39L0.331,-0.702L0.422,-0.695C0.467,-0.692 0.513,-0.612 0.553,-0.529L0.569,-0.532L0.566,-0.732L0.133,-0.732L0.133,-0.73C0.145,-0.655 0.146,-0.611 0.126,-0.511L0.07,-0.225C0.049,-0.119 0.03,-0.077 -0.007,-0.002L-0.007,-0Z" style="fill-rule:nonzero;"/>
            </g>
            <g transform="matrix(125,0,0,125,1093.46,1010.08)">
                <path d="M0.231,-0.002C0.218,-0.073 0.216,-0.124 0.236,-0.226L0.257,-0.33L0.305,-0.33L0.384,-0L0.595,-0L0.595,-0.004C0.56,-0.037 0.542,-0.073 0.526,-0.134L0.47,-0.359C0.567,-0.4 0.615,-0.485 0.615,-0.57C0.615,-0.663 0.559,-0.732 0.411,-0.732L0.134,-0.732L0.134,-0.73C0.145,-0.655 0.145,-0.611 0.124,-0.505L0.07,-0.227C0.049,-0.121 0.03,-0.078 -0.007,-0.002L-0.007,-0L0.23,-0L0.231,-0.002ZM0.37,-0.699C0.43,-0.699 0.449,-0.662 0.449,-0.594C0.449,-0.492 0.41,-0.365 0.317,-0.365L0.264,-0.365L0.33,-0.698C0.344,-0.699 0.359,-0.699 0.37,-0.699Z" style="fill-rule:nonzero;"/>
            </g>
        </g>
    </g>
</svg>
